<svg width="121" height="119" viewBox="0 0 121 119" fill="none" xmlns="http://www.w3.org/2000/svg">
<g clip-path="url(#clip0_2057_2535)">
<path d="M117.294 59.147C117.294 70.7983 113.848 81.6838 107.886 90.7642C106.573 92.8428 105.151 94.7026 103.619 96.5624C92.9522 109.198 76.9795 117.239 59.2018 117.239C41.424 117.239 25.4513 109.144 14.7846 96.5624C13.253 94.7026 11.8308 92.8428 10.518 90.8189C8.98633 88.412 7.50941 85.8411 6.30599 83.1607C5.37607 81.0274 4.44616 78.8394 3.78975 76.5419C2.64103 73.0958 1.87521 69.6496 1.43761 66.0394C1.2735 65.1641 1.2188 64.2889 1.1641 63.3043C1.1094 61.9368 1 60.4599 1 59.0376C1 42.7915 7.61881 28.1863 18.3402 17.6291C19.4342 16.5351 20.6376 15.4957 21.7863 14.4564C31.9607 6.14188 44.9795 1 59.2018 1C70.5795 1 81.2462 4.28205 90.2719 9.97095C90.7095 10.1897 91.0924 10.4633 91.53 10.7915C91.9129 11.065 92.3505 11.2838 92.6787 11.612C94.8667 13.1436 97.0001 14.8393 98.9146 16.6992C100.063 17.7932 101.212 18.8872 102.197 20.0906C103.455 21.5128 104.713 22.9351 105.807 24.5214C106.08 24.9043 106.299 25.2325 106.627 25.6154C106.901 25.9983 107.12 26.3265 107.448 26.7094C110.73 31.5778 113.246 36.9385 114.997 42.6274C115.27 43.6667 115.598 44.5966 115.817 45.6359C116.747 49.9026 117.294 54.4428 117.294 59.147Z" stroke="#D4D4D8" stroke-width="2" stroke-miterlimit="10" stroke-linecap="round" stroke-linejoin="round"/>
<path d="M112.426 90.7644V96.5627H14.73C13.1984 94.7028 11.7762 92.843 10.4634 90.8191H112.426V90.7644Z" fill="#F4F4F5" stroke="#D4D4D8" stroke-width="2" stroke-miterlimit="10"/>
<path d="M115.106 46.1284H67.7349V43.1199H114.285C114.668 44.0498 114.887 45.0891 115.106 46.1284Z" fill="#F4F4F5"/>
<path d="M106.025 26.0529V43.5025H81.8477V11.3384H90.8186C91.2015 11.6119 91.6391 11.8307 91.9673 12.1589C94.1554 13.6905 96.2887 15.3862 98.2032 17.2461C99.3519 18.3401 100.501 19.4341 101.485 20.6375C102.743 22.0598 104.002 23.482 105.096 25.0683C105.478 25.3418 105.807 25.7247 106.025 26.0529Z" fill="white"/>
<path d="M106.026 26.0531C105.752 25.6702 105.533 25.342 105.205 24.9591V42.7369H82.6684V12.1044H91.9675C91.5846 11.8309 91.2564 11.6121 90.8188 11.2839C90.4359 11.0104 89.9983 10.7916 89.5607 10.4634H80.9727V44.2138H106.682V27.1471C106.518 26.8189 106.299 26.436 106.026 26.0531Z" fill="#F4F4F5"/>
<path d="M101.595 20.5829V37.6496H86.2236V17.1914H98.2031C99.4613 18.2854 100.555 19.3795 101.595 20.5829Z" fill="#F4F4F5"/>
<path d="M40.2754 89.7796C40.2754 90.2719 39.8925 90.6548 39.4549 90.8189C39.4002 90.8189 39.2908 90.8189 39.2361 90.8189H10.4634C8.93181 88.4121 7.45488 85.8412 6.25146 83.1608C7.56429 80.9728 8.33011 78.6206 8.65831 76.542C8.82242 75.8309 8.87712 75.1745 8.93182 74.4634H30.6481C30.7028 75.1198 30.8669 75.7762 31.031 76.542C31.8515 80.4805 33.9848 85.4036 38.4703 88.7403H39.1814C39.8378 88.7403 40.2754 89.2326 40.2754 89.7796Z" fill="#F4F4F5" stroke="#D4D4D8" stroke-width="2" stroke-miterlimit="10"/>
<path d="M60.6787 17.0274V74.0805C60.6787 75.448 59.5846 76.4873 58.2718 76.4873H3.78973C2.69571 73.2052 1.9299 69.7591 1.49229 66.1488C1.32819 65.2736 1.27349 64.3984 1.21879 63.4138C1.16409 61.9916 1.05469 60.5693 1.05469 59.1471C1.05469 42.901 7.6735 28.2958 18.3949 17.7385C19.4889 16.6445 20.6923 15.6052 21.841 14.5659H58.1624C59.6393 14.5659 60.6787 15.7693 60.6787 17.0274Z" fill="#F4F4F5" stroke="#D4D4D8" stroke-width="2" stroke-miterlimit="10"/>
<path d="M60.6787 17.0274V66.1488H1.49229C1.32819 65.2736 1.27349 64.3984 1.21879 63.4138C1.16409 61.9916 1.05469 60.5693 1.05469 59.1471C1.05469 42.901 7.6735 28.2958 18.3949 17.7385C19.4889 16.6445 20.6923 15.6052 21.841 14.5659H58.1624C59.6393 14.5659 60.6787 15.7693 60.6787 17.0274Z" fill="#F4F4F5" stroke="#D4D4D8" stroke-width="2" stroke-miterlimit="10"/>
<path d="M57.506 17.7385V63.4685H1.27348C1.21878 62.0462 1.10938 60.624 1.10938 59.2018C1.10938 42.9556 7.72817 28.3505 18.4496 17.7932H57.506V17.7385Z" fill="white" stroke="#D4D4D8" stroke-width="2" stroke-miterlimit="10" stroke-linecap="round" stroke-linejoin="round"/>
<path d="M19.5435 73.5879C20.6375 73.5879 21.5127 72.7127 21.5127 71.6187C21.5127 70.5247 20.6375 69.6494 19.5435 69.6494C18.4494 69.6494 17.5742 70.5247 17.5742 71.6187C17.5742 72.7127 18.4494 73.5879 19.5435 73.5879Z" fill="#D4D4D8"/>
<path d="M30.3744 77.4173V79.7694H28.7333C27.8034 79.7694 26.9829 80.59 26.9829 81.5199V84.8019C26.9829 85.7318 27.8034 86.5523 28.7333 86.5523H30.3744V89.0686C30.3744 89.9438 31.0855 90.7096 32.0154 90.7096H39.2906C40.1658 90.7096 40.9316 89.9985 40.9316 89.0686V77.3079H30.3744V77.4173ZM28.7333 85.3489C28.5145 85.3489 28.2957 85.1301 28.2957 84.9113V81.6293C28.2957 81.4105 28.5145 81.1917 28.7333 81.1917H30.3744V85.4036H28.7333V85.3489Z" fill="#D4D4D8" stroke="#A1A1AA" stroke-width="2" stroke-miterlimit="10" stroke-linejoin="round"/>
<path d="M35.7347 63.5776C36.3911 65.2187 36.5552 66.8597 35.5706 68.1178C34.6407 69.4306 33.9296 71.1811 34.9142 72.5486C35.8441 73.8614 36.1723 74.9007 35.7894 75.5571C35.4065 76.2135 35.7894 75.5024 37.0476 74.0802C38.1416 72.9315 36.1723 71.9469 36.1176 71.017C36.0629 70.1417 37.157 68.2819 37.157 67.0785C37.1023 65.7657 36.5005 64.0699 35.7347 63.5776Z" fill="#D4D4D8"/>
<path d="M33.0002 70.7434C33.2737 71.5639 33.3831 72.3845 32.9455 73.0409C32.5079 73.6973 32.125 74.5725 32.672 75.2289C33.1643 75.8853 33.2737 76.3776 33.1096 76.7605C32.9455 77.1434 33.1096 76.7605 33.766 76.0494C34.2583 75.4477 33.3284 74.9554 33.2737 74.5178C33.219 74.0802 33.766 73.205 33.766 72.5486C33.7113 71.8374 33.4378 71.0169 33.0002 70.7434Z" fill="#D4D4D8"/>
<path d="M62.2646 78.9487C62.8664 77.6358 64.8904 75.1196 66.969 74.0803C67.2425 73.9162 67.5706 74.0256 67.68 74.2991C68.2817 75.3384 69.7588 77.964 69.2118 80.535C68.5006 83.6529 62.2646 78.9487 62.2646 78.9487Z" fill="#D4D4D8" stroke="#A1A1AA" stroke-width="2" stroke-miterlimit="10" stroke-linejoin="round"/>
<path d="M59.694 79.1674C59.694 79.1674 57.0684 76.323 55.3726 75.2837C54.935 75.0649 54.4427 75.2291 54.2239 75.6667C52.3641 79.1676 52.3641 83.2154 52.8017 85.3487C53.294 87.6462 57.2325 81.3008 57.2325 81.3008L59.694 79.1674Z" fill="#D4D4D8" stroke="#A1A1AA" stroke-width="2" stroke-miterlimit="10" stroke-linejoin="round"/>
<path d="M58.4903 80.0976C58.4903 80.0976 56.8492 78.3472 55.8646 77.6908C55.5911 77.5814 55.2629 77.6361 55.1535 77.9096C54.0595 80.0976 54.0048 82.5591 54.333 83.872C54.6612 85.2942 57.068 81.3557 57.068 81.3557L58.4903 80.0976Z" fill="#A1A1AA"/>
<path d="M63.9604 79.1126C64.2887 78.2373 65.6015 76.5963 66.8596 75.9399C67.0237 75.8852 67.1878 75.9399 67.3519 76.104C67.6801 76.7604 68.61 78.4561 68.2818 80.1519C67.8442 82.2305 63.9604 79.1126 63.9604 79.1126Z" fill="#A1A1AA"/>
<path d="M115.27 112.973C109.691 110.621 110.511 103.291 111.058 96.5076C111.551 96.5076 111.988 96.5076 112.481 96.5076C112.481 94.5931 112.481 92.6238 112.481 90.7093C112.481 90.6546 109.91 90.764 109.636 90.764C108.378 90.764 107.722 90.0529 106.682 89.6153C106.792 89.67 106.409 92.6239 106.354 92.9521C104.549 100.884 100.884 103.674 104.33 107.338C105.369 108.433 105.862 110.785 103.455 111.824C101.048 112.754 99.6258 109.253 98.8053 107.557C97.3831 104.603 98.5865 100.227 100.118 91.2563C100.118 91.2563 83.1062 91.2016 78.2378 91.2563C77.9096 92.6238 75.1745 102.142 74.7916 104.111C74.1899 107.065 75.1745 109.198 75.3933 110.785C75.6121 112.48 72.7677 113.629 70.6344 111.715C67.8993 109.198 70.7985 105.315 71.1814 96.6717C71.1814 96.1794 71.3455 90.8734 71.0173 90.8734C65.3831 90.8734 59.8036 90.8187 54.1694 90.9281C53.513 90.9281 52.5284 91.2016 52.1455 90.5999C49.0822 86.1144 56.8497 75.9948 65.4925 78.6204C66.9147 79.058 68.4463 79.9879 69.9779 80.0973C69.9779 80.0973 70.8532 79.8238 75.2839 76.5965C82.7233 72.3298 92.0771 72.658 97.8754 74.0255C105.698 75.8854 107.065 82.176 109.308 84.9657C112.535 89.0136 115.598 90.0529 115.161 99.9538C114.997 103.947 114.942 106.08 118.224 108.378C120.412 110.128 118.662 114.395 115.27 112.973Z" fill="white" stroke="#A1A1AA" stroke-width="2" stroke-miterlimit="10" stroke-linejoin="round"/>
<path d="M63.0852 89.9436C62.4835 89.9983 61.7177 90.1077 61.0066 90.1077C60.7878 90.1077 60.5143 90.1077 60.2955 90.1624C57.8886 90.2171 55.5912 89.8889 55.263 88.0838C55.0442 86.6616 57.0681 84.8565 58.1621 84.2548C61.8818 82.1761 65.7109 85.2394 66.1485 87.0992C66.4767 88.6855 64.7809 89.6701 63.0852 89.9436Z" fill="#D4D4D8" stroke="#A1A1AA" stroke-width="2" stroke-miterlimit="10" stroke-linejoin="round"/>
<path d="M60.679 87.9744C61.2807 87.9744 61.773 87.7556 61.773 87.4274C61.773 87.0992 61.2807 86.8804 60.679 86.8804C60.0773 86.8804 59.585 87.0992 59.585 87.4274C59.585 87.7556 60.0773 87.9744 60.679 87.9744Z" fill="#A1A1AA"/>
<path d="M61.2259 87.9744V90.1078C60.8976 90.1078 60.46 90.1625 60.1318 90.1625V88.0291L61.2259 87.9744Z" fill="#A1A1AA"/>
<path d="M75.3383 110.785C75.5572 112.481 72.7127 113.629 70.5794 111.715C68.446 109.745 70.4153 103.127 70.9623 99.6257C71.2358 97.7659 71.2358 95.5232 71.1811 93.7727C72.111 94.9214 74.4084 97.8206 76.0495 99.3522C75.5572 101.267 75.0101 103.017 74.7913 104.221C74.1896 107.01 75.0648 109.144 75.3383 110.785Z" fill="#D4D4D8"/>
<path d="M104.221 107.393C105.26 108.487 105.753 110.839 103.346 111.879C100.939 112.809 99.5167 109.308 98.6962 107.612C97.8757 105.916 98.0398 101.868 98.6962 98.5865C98.915 97.4378 99.1885 96.1797 99.3526 95.0857C99.8449 95.3592 100.392 95.6874 100.83 96.0156C101.978 96.8908 103.127 97.9301 104.44 98.6412C103.838 100.337 103.346 101.704 103.018 102.361C102.306 104.166 103.182 106.299 104.221 107.393Z" fill="#D4D4D8"/>
<path d="M118.17 112.644C116.529 114.176 113.739 112.426 112.207 110.675C110.676 108.925 110.347 103.455 110.894 98.6958C110.949 97.8753 111.058 97.1641 110.949 96.5077H112.426V90.7094H107.94C107.886 90.6547 107.776 90.5453 107.722 90.4906C107.776 90.2718 107.886 89.9983 107.94 89.7795C108.323 88.6308 107.722 87.4821 109.034 85.0205C109.417 85.6223 109.746 85.9505 110.129 86.2787C110.84 86.9351 111.605 87.4274 112.918 89.2872C115.489 92.7881 115.106 100.173 114.997 103.072C114.942 106.08 116.966 107.94 118.224 108.432C119.318 108.979 119.756 111.113 118.17 112.644Z" fill="#D4D4D8"/>
<path d="M115.27 112.973C109.691 110.621 110.511 103.291 111.058 96.5076C111.551 96.5076 111.988 96.5076 112.481 96.5076C112.481 94.5931 112.481 94.8119 112.481 92.8426C112.481 92.7879 111.222 92.2956 110.73 91.9127C109.691 91.2016 107.722 89.9982 106.682 89.6153C106.792 89.67 106.409 92.6239 106.354 92.9521C104.549 100.884 100.884 103.674 104.33 107.338C105.369 108.433 105.862 110.785 103.455 111.824C101.048 112.754 99.6258 109.253 98.8053 107.557C97.3831 104.603 98.5865 100.227 100.118 91.2563C100.118 91.2563 83.1062 91.2016 78.2378 91.2563C77.9096 92.6238 75.1745 102.142 74.7916 104.111C74.1899 107.065 75.1745 109.198 75.3933 110.785C75.6121 112.48 72.7677 113.629 70.6344 111.715C67.8993 109.198 70.7985 105.315 71.1814 96.6717C71.1814 96.1794 71.3455 90.8734 71.0173 90.8734C65.3831 90.8734 59.8036 90.8187 54.1694 90.9281C53.513 90.9281 52.5284 91.2016 52.1455 90.5999C49.0822 86.1144 56.8497 75.9948 65.4925 78.6204C66.9147 79.058 68.4463 79.9879 69.9779 80.0973C69.9779 80.0973 70.8532 79.8238 75.2839 76.5965C82.7233 72.3298 92.0771 72.658 97.8754 74.0255C105.698 75.8854 107.065 82.176 109.308 84.9657C112.535 89.0136 115.598 90.0529 115.161 99.9538C114.997 103.947 114.942 106.08 118.224 108.378C120.412 110.128 118.662 114.395 115.27 112.973Z" stroke="#A1A1AA" stroke-width="2" stroke-miterlimit="10" stroke-linejoin="round"/>
<path d="M64.5078 81.5198H64.4531L62.9215 81.301C62.648 81.301 62.4839 81.0275 62.4839 80.8087C62.4839 80.5352 62.7574 80.3711 62.9762 80.3711L64.5078 80.5899C64.7813 80.5899 64.9454 80.8634 64.9454 81.0822C64.9454 81.4104 64.7266 81.5198 64.5078 81.5198Z" fill="#A1A1AA"/>
<path d="M57.1232 81.6837H57.1779L58.7095 81.4649C58.983 81.4649 59.1471 81.1913 59.1471 80.9725C59.1471 80.699 58.8736 80.5349 58.6548 80.5349L57.1232 80.7537C56.8497 80.7537 56.6855 81.0272 56.6855 81.246C56.7949 81.4649 56.9044 81.629 57.1232 81.6837Z" fill="#A1A1AA"/>
<path d="M68.9742 42.9539L68.5142 40.3143L78.843 38.5142L79.3031 41.1538L73.7251 50.8764L80.8979 49.6264L81.3579 52.2659L70.57 54.146L70.11 51.5064L75.688 41.7838L68.9742 42.9539Z" fill="#9D9DA4"/>
<path d="M65.0194 61.1632L65.499 59.5938L71.5673 61.4481L71.0878 63.0174L65.4887 66.7404L69.6738 68.0191L69.1942 69.5886L62.812 67.6383L63.2916 66.069L68.8906 62.3461L65.0194 61.1632Z" fill="#9D9DA4"/>
<path d="M107.174 90.8736H112.425V90.8188V96.6171H105.971" fill="#F4F4F5"/>
<path d="M107.174 90.8736H112.425V90.8188V96.6171H105.971" stroke="#D4D4D8" stroke-width="2" stroke-miterlimit="10"/>
</g>
<defs>
<clipPath id="clip0_2057_2535">
<rect width="121" height="119" fill="white"/>
</clipPath>
</defs>
</svg>
