<svg width="123" height="126" viewBox="0 0 123 126" fill="none" xmlns="http://www.w3.org/2000/svg">
<path d="M64.4237 111.867C91.7974 111.867 113.99 89.6743 113.99 62.2029C113.99 34.7315 91.6996 12.5393 64.4237 12.5393C37.0501 12.5393 14.8579 34.7315 14.8579 62.2029C14.8579 89.6743 37.0501 111.867 64.4237 111.867Z" fill="#F5F5F6" stroke="#D4D4D8" stroke-width="2" stroke-miterlimit="10"/>
<path d="M93.6338 12.5393C83.2422 33.0217 67.9889 41.1701 54.0085 46.036C50.764 47.181 47.2331 48.1828 43.8931 47.3241C40.5531 46.4654 37.6425 43.0783 38.5491 39.7389C39.3602 36.6381 43.3682 35.1115 46.2788 36.3518C49.2371 37.5922 50.8594 41.027 50.5731 44.2232C50.2868 47.4195 48.3305 50.2341 45.8494 52.19C43.3205 54.1459 40.3145 55.3386 37.2608 56.245C30.533 58.2486 23.519 59.2027 16.9821 61.7311C10.3976 64.2595 4.14697 68.7915 1.9044 75.4225C0.282105 80.1453 0.950107 85.4883 3.04954 89.9726C5.14898 94.4569 8.72756 98.2256 12.7356 101.231C18.8907 105.811 26.4773 108.673 34.1116 108.482C41.7459 108.291 49.4757 104.952 54.1994 98.9412C58.9231 92.9304 60.3068 84.2003 56.9668 77.283C54.6765 72.5125 49.4757 68.6006 44.2748 69.7456C40.1714 70.6997 37.1653 74.7069 36.7359 78.9527C36.3065 83.1985 38.1673 87.3965 40.9348 90.5451C43.7022 93.7413 47.3762 95.9835 51.1934 97.9394C56.776 100.754 63.3606 102.901 69.134 100.515C74.6212 98.2733 77.818 92.5964 79.9175 87.1103C82.0169 81.6242 83.5915 75.661 87.4086 71.129C91.9892 65.6906 99.7189 63.1622 106.638 64.7842C113.556 66.4062 119.377 72.1308 121.095 79.0004C122.431 84.3434 120.809 91.0221 115.799 93.3597C111.886 95.2202 107.067 93.8845 103.679 91.213C100.292 88.5415 98.0012 84.725 95.8064 81.004" stroke="#D4D4D8" stroke-width="2" stroke-miterlimit="10" stroke-dasharray="4 4"/>
<path d="M55.1785 35.3719C63.5322 38.1998 72.5967 33.7203 75.4246 25.3666C78.2525 17.0129 73.773 7.94839 65.4193 5.12048C57.0656 2.29256 48.0011 6.77209 45.1732 15.1258C42.3452 23.4795 46.8248 32.544 55.1785 35.3719Z" fill="white" stroke="#CDCDD2" stroke-width="2" stroke-miterlimit="10" stroke-linecap="round" stroke-linejoin="round"/>
<path d="M56.1376 32.5375C62.926 34.8355 70.292 31.1953 72.59 24.407C74.888 17.6186 71.2479 10.2526 64.4595 7.95458C57.6711 5.65657 50.3052 9.29672 48.0071 16.0851C45.7091 22.8735 49.3493 30.2395 56.1376 32.5375Z" fill="white" stroke="#D4D4D8" stroke-width="2" stroke-miterlimit="10" stroke-linejoin="round"/>
<path d="M59.7563 21.8493C60.6417 22.149 61.6025 21.6742 61.9022 20.7888C62.202 19.9033 61.7271 18.9425 60.8417 18.6428C59.9563 18.3431 58.9955 18.8179 58.6958 19.7033C58.396 20.5887 58.8708 21.5495 59.7563 21.8493Z" fill="white" stroke="#CDCDD2" stroke-width="2" stroke-miterlimit="10" stroke-linejoin="round"/>
<path d="M63.012 12.23L60.6602 19.1773" stroke="#CDCDD2" stroke-width="2" stroke-miterlimit="10" stroke-linejoin="round"/>
<path d="M62.083 20.2544L66.1857 20.452" stroke="#CDCDD2" stroke-width="2" stroke-miterlimit="10" stroke-linejoin="round"/>
<path d="M64.0742 10.77C64.3347 10.6458 64.4328 10.3214 64.2932 10.0455C64.1536 9.76962 63.8292 9.64663 63.5687 9.77083C63.3082 9.89503 63.2101 10.2193 63.3497 10.4953C63.4893 10.7712 63.8137 10.8942 64.0742 10.77Z" fill="white" stroke="#D4D4D8" stroke-width="2" stroke-miterlimit="10" stroke-linejoin="round"/>
<path d="M57.3164 30.7047C57.5769 30.5804 57.675 30.2561 57.5354 29.9802C57.3958 29.7042 57.0714 29.5812 56.8109 29.7054C56.5504 29.8297 56.4523 30.154 56.5919 30.4299C56.7315 30.7059 57.0559 30.8289 57.3164 30.7047Z" fill="white" stroke="#D4D4D8" stroke-width="2" stroke-miterlimit="10" stroke-linejoin="round"/>
<path d="M50.7197 17.3826C50.9802 17.2584 51.0783 16.934 50.9387 16.6581C50.7991 16.3822 50.4747 16.2592 50.2142 16.3834C49.9537 16.5076 49.8556 16.832 49.9952 17.1079C50.1348 17.3838 50.4592 17.5068 50.7197 17.3826Z" fill="white" stroke="#D4D4D8" stroke-width="2" stroke-miterlimit="10" stroke-linejoin="round"/>
<path d="M70.6543 24.1404C70.9148 24.0162 71.0129 23.6918 70.8733 23.4159C70.7337 23.14 70.4093 23.017 70.1488 23.1412C69.8882 23.2654 69.7902 23.5898 69.9298 23.8657C70.0694 24.1416 70.3938 24.2646 70.6543 24.1404Z" fill="white" stroke="#D4D4D8" stroke-width="2" stroke-miterlimit="10" stroke-linejoin="round"/>
<path d="M12.3005 40.0981L14.9425 39.3018C15.1339 39.2462 15.1339 38.9685 14.9425 38.9129L12.3005 38.1166C12.2326 38.0981 12.1832 38.0487 12.1647 37.9808L11.3684 35.345C11.3128 35.1536 11.0351 35.1536 10.9795 35.345L10.1832 37.9808C10.1647 38.0487 10.1153 38.0981 10.0474 38.1166L7.41159 38.9129C7.22023 38.9685 7.22023 39.2462 7.41159 39.3018L10.0536 40.0981C10.1215 40.1166 10.1709 40.166 10.1894 40.2339L10.9857 42.8759C11.0412 43.0673 11.319 43.0673 11.3746 42.8759L12.1709 40.2339C12.1832 40.166 12.2326 40.1166 12.3005 40.0981Z" fill="#D4D4D8"/>
<path d="M96.5555 9.17309L99.2574 9.73341C99.4521 9.77586 99.5846 9.53171 99.4429 9.39161L97.5006 7.43153C97.4498 7.38287 97.4299 7.31591 97.4461 7.24739L98.0034 4.55092C98.0459 4.35623 97.8017 4.22373 97.6616 4.36542L95.7045 6.30224C95.6558 6.35309 95.5889 6.37294 95.5204 6.35683L92.8239 5.79945C92.6292 5.757 92.4967 6.00114 92.6384 6.14125L94.5806 8.10133C94.6315 8.14999 94.6513 8.21695 94.6352 8.28546L94.0749 10.9874C94.0324 11.182 94.2766 11.3145 94.4167 11.1728L96.3768 9.23061C96.42 9.17682 96.487 9.15697 96.5555 9.17309Z" fill="#D4D4D8"/>
<path d="M94.8953 76.013L96.9596 74.1819C97.11 74.0512 96.9934 73.799 96.7964 73.8289L94.0641 74.2143C93.9947 74.226 93.9292 74.2019 93.8839 74.148L92.0554 72.0895C91.9247 71.9391 91.6725 72.0556 91.7024 72.2526L92.0851 74.9792C92.0968 75.0486 92.0727 75.1142 92.0188 75.1595L89.9601 76.988C89.8097 77.1187 89.9263 77.3708 90.1233 77.341L92.8556 76.9555C92.925 76.9438 92.9905 76.968 93.0358 77.0218L94.8669 79.086C94.9976 79.2364 95.2498 79.1198 95.2199 78.9228L94.8346 76.1906C94.8173 76.1238 94.8414 76.0583 94.8953 76.013Z" fill="#D4D4D8"/>
<path d="M73.8716 57.3261L76.1834 56.6294C76.3508 56.5808 76.3508 56.3377 76.1834 56.2891L73.8716 55.5924C73.8122 55.5762 73.769 55.533 73.7528 55.4736L73.0561 53.1674C73.0074 52.9999 72.7644 52.9999 72.7158 53.1674L72.019 55.4736C72.0028 55.533 71.9596 55.5762 71.9002 55.5924L69.5938 56.2891C69.4264 56.3377 69.4264 56.5808 69.5938 56.6294L71.9056 57.3261C71.965 57.3423 72.0082 57.3855 72.0244 57.4449L72.7212 59.7565C72.7698 59.924 73.0128 59.924 73.0615 59.7565L73.7582 57.4449C73.769 57.3855 73.8122 57.3423 73.8716 57.3261Z" fill="#D4D4D8"/>
<path d="M29.5118 89.7617L31.8235 88.9654C31.991 88.9098 31.991 88.632 31.8235 88.5765L29.5118 87.7802C29.4524 87.7617 29.4092 87.7123 29.393 87.6444L28.6962 85.0085C28.6476 84.8172 28.4045 84.8172 28.3559 85.0085L27.6591 87.6444C27.6429 87.7123 27.5997 87.7617 27.5403 87.7802L25.234 88.5765C25.0665 88.632 25.0665 88.9098 25.234 88.9654L27.5457 89.7617C27.6051 89.7802 27.6483 89.8296 27.6646 89.8975L28.3613 92.5395C28.4099 92.7308 28.653 92.7308 28.7016 92.5395L29.3984 89.8975C29.4092 89.8296 29.4524 89.7802 29.5118 89.7617Z" fill="#D4D4D8"/>
<path d="M25.6922 50.6717L27.3434 50.1741C27.463 50.1394 27.463 49.9658 27.3434 49.931L25.6922 49.4334C25.6497 49.4218 25.6188 49.391 25.6073 49.3485L25.1096 47.7013C25.0749 47.5817 24.9013 47.5817 24.8665 47.7013L24.3688 49.3485C24.3573 49.391 24.3264 49.4218 24.284 49.4334L22.6366 49.931C22.517 49.9658 22.517 50.1394 22.6366 50.1741L24.2878 50.6717C24.3303 50.6833 24.3611 50.7142 24.3727 50.7566L24.8704 52.4077C24.9051 52.5273 25.0787 52.5273 25.1134 52.4077L25.6111 50.7566C25.6188 50.7142 25.6497 50.6833 25.6922 50.6717Z" fill="#D4D4D8"/>
<path d="M120.831 51.7623L122.482 51.2647C122.602 51.2299 122.602 51.0563 122.482 51.0216L120.831 50.524C120.788 50.5124 120.758 50.4815 120.746 50.4391L120.248 48.7918C120.214 48.6723 120.04 48.6723 120.005 48.7918L119.508 50.4391C119.496 50.4815 119.465 50.5124 119.423 50.524L117.775 51.0216C117.656 51.0563 117.656 51.2299 117.775 51.2647L119.426 51.7623C119.469 51.7739 119.5 51.8047 119.511 51.8472L120.009 53.4983C120.044 53.6179 120.217 53.6179 120.252 53.4983L120.75 51.8472C120.758 51.8047 120.788 51.7739 120.831 51.7623Z" fill="#D4D4D8"/>
<path d="M37.8972 27.6537L39.5485 27.156C39.6681 27.1213 39.6681 26.9477 39.5485 26.913L37.8972 26.4153C37.8548 26.4037 37.8239 26.3729 37.8124 26.3304L37.3147 24.6832C37.2799 24.5636 37.1063 24.5636 37.0716 24.6832L36.5738 26.3304C36.5622 26.3729 36.5315 26.4037 36.489 26.4153L34.8417 26.913C34.7221 26.9477 34.7221 27.1213 34.8417 27.156L36.4929 27.6537C36.5353 27.6652 36.5662 27.6961 36.5778 27.7385L37.0755 29.3896C37.1102 29.5092 37.2838 29.5092 37.3185 29.3896L37.8162 27.7385C37.8239 27.6961 37.8548 27.6652 37.8972 27.6537Z" fill="#D4D4D8"/>
<path d="M13.3069 83.1034L14.9581 82.6057C15.0777 82.571 15.0777 82.3974 14.9581 82.3627L13.3069 81.865C13.2645 81.8535 13.2336 81.8226 13.222 81.7802L12.7243 80.1329C12.6896 80.0133 12.516 80.0133 12.4813 80.1329L11.9836 81.7802C11.972 81.8226 11.9411 81.8535 11.8987 81.865L10.2513 82.3627C10.1317 82.3974 10.1317 82.571 10.2513 82.6057L11.9026 83.1034C11.945 83.1149 11.9759 83.1458 11.9874 83.1882L12.4851 84.8394C12.5199 84.9589 12.6935 84.9589 12.7282 84.8394L13.2259 83.1882C13.2336 83.1458 13.2645 83.1149 13.3069 83.1034Z" fill="#D4D4D8"/>
<path d="M58.6922 57.5908L61.979 62.276C62.9181 63.6147 63.5603 64.7336 64.0498 66.2449C65.8824 71.0943 65.1988 76.4247 62.6771 80.7618C62.209 81.5182 61.9707 82.3987 62.0863 83.1736C62.1063 84.0156 62.356 84.9819 62.8927 85.7468C63.9659 87.2767 65.7655 88.0116 67.5737 87.7418C73.3808 86.6643 79.3534 88.4668 83.4436 92.8737C83.9417 93.3804 84.3442 93.954 84.8137 94.6233L88.1005 99.3087C88.5029 99.8824 88.8098 100.523 89.1452 101.001L61.0335 120.722C60.6025 120.311 60.133 119.642 59.7976 119.163L56.5108 114.478C56.1754 114 55.9357 113.455 55.6003 112.977C55.4661 112.786 55.3605 112.432 55.1593 112.145C52.5704 106.827 52.88 100.761 55.8413 95.8296C56.7775 94.3168 56.6319 92.2789 55.5586 90.7491C55.0891 90.0797 54.3612 89.4489 53.5763 89.1435C53.5092 89.0479 53.4136 89.1149 53.4136 89.1149C52.6287 88.8095 51.7867 88.8296 50.9447 88.8496C47.0414 89.5903 43.0411 88.9723 39.4319 87.0814C38.5128 86.5848 37.5937 86.0882 36.7988 85.3618C36.569 85.2377 36.3678 84.9507 36.2336 84.7595C35.3716 83.9374 34.4425 83.0199 33.7047 81.9681L30.4179 77.2827C30.3508 77.1871 30.2167 76.996 30.0825 76.8047L58.3854 56.95C58.491 57.3039 58.5581 57.3995 58.6922 57.5908Z" fill="#F5F5F6" stroke="#D4D4D8" stroke-width="1.9781" stroke-miterlimit="10" stroke-linecap="round" stroke-linejoin="round"/>
<path d="M74.5356 102.547C74.5356 102.547 64.4216 111.925 63.7422 111.973C63.2927 112.146 59.3138 113.796 56.7792 114.861L56.1085 113.904C55.7731 113.426 55.4377 112.948 55.1309 112.308C55.255 112.078 55.3121 111.752 55.3692 111.427C56.6664 107.378 60.698 101.126 69.1952 101.442L74.5356 102.547Z" fill="#F5F5F6" stroke="#D4D4D8" stroke-width="1.9781" stroke-miterlimit="10" stroke-linecap="round" stroke-linejoin="round"/>
<path d="M58.6922 57.5908L61.979 62.276C62.9181 63.6147 63.5603 64.7336 64.0498 66.2449C65.8824 71.0943 65.1988 76.4247 62.6771 80.7618C62.209 81.5182 61.9707 82.3987 62.0863 83.1736C62.1063 84.0156 62.356 84.9819 62.8927 85.7468C63.9659 87.2767 65.7655 88.0116 67.5737 87.7418C73.3808 86.6643 79.3534 88.4668 83.4436 92.8737C83.9417 93.3804 84.3442 93.954 84.8137 94.6233L88.1005 99.3087C88.5029 99.8824 88.8098 100.523 89.1452 101.001L61.0335 120.722C60.6025 120.311 60.133 119.642 59.7976 119.163L56.5108 114.478C56.1754 114 55.9357 113.455 55.6003 112.977C55.4661 112.786 55.3605 112.432 55.1593 112.145C52.5704 106.827 52.88 100.761 55.8413 95.8296C56.7775 94.3168 56.6319 92.2789 55.5586 90.7491C55.0891 90.0797 54.3612 89.4489 53.5763 89.1435C53.5092 89.0479 53.4136 89.1149 53.4136 89.1149C52.6287 88.8095 51.7867 88.8296 50.9447 88.8496C47.0414 89.5903 43.0411 88.9723 39.4319 87.0814C38.5128 86.5848 37.5937 86.0882 36.7988 85.3618C36.569 85.2377 36.3678 84.9507 36.2336 84.7595C35.3716 83.9374 34.4425 83.0199 33.7047 81.9681L30.4179 77.2827C30.3508 77.1871 30.2167 76.996 30.0825 76.8047L58.3854 56.95C58.491 57.3039 58.5581 57.3995 58.6922 57.5908Z" fill="white" stroke="#CDCDD2" stroke-width="2" stroke-miterlimit="10"/>
<path d="M56.5305 77.0841L45.3632 85.7741L39.5947 87.11C38.6756 86.6133 37.7566 86.1168 36.9616 85.3904C36.7319 85.2662 36.5306 84.9793 36.3965 84.788C39.4819 79.6275 42.3204 76.3521 50.5764 74.698C51.9636 74.4382 53.2552 74.2455 54.8051 74.0143C68.6012 72.3258 56.5305 77.0841 56.5305 77.0841Z" fill="#F5F5F6" stroke="#CDCDD2" stroke-width="1.9781" stroke-miterlimit="10" stroke-linecap="round" stroke-linejoin="round"/>
<path d="M64.1173 66.3406C65.9498 71.19 65.2662 76.5204 62.7445 80.8575C62.2764 81.6139 62.0381 82.4945 62.1537 83.2694L62.0581 83.3365C60.5282 84.4097 60.1286 86.6874 61.2019 88.2173L71.1963 102.464L68.4234 104.41L58.3619 90.0669C57.2887 88.5371 55.1065 88.0704 53.481 89.2107C52.6961 88.9053 51.8541 88.9253 51.0121 88.9453C47.1088 89.686 43.1086 89.0681 39.4993 87.1772C38.5802 86.6806 37.6611 86.1839 36.8662 85.4575C45.3805 83.7648 48.2461 78.9011 50.4525 74.9279C51.1689 73.712 51.7897 72.5631 52.4775 71.5099C55.2005 67.4596 59.2179 66.0681 64.1173 66.3406Z" fill="#F5F5F6" stroke="#CDCDD2" stroke-width="2" stroke-miterlimit="10" stroke-linecap="round" stroke-linejoin="round"/>
<path d="M84.7177 94.6903L88.0045 99.3756C88.4069 99.9493 88.7138 100.59 89.0492 101.068L63.9973 118.642L59.3948 118.59L56.4434 114.383C56.108 113.904 55.7726 113.426 55.5328 112.881C55.3987 112.69 55.2931 112.336 55.0918 112.049C55.1875 111.982 55.2545 112.078 55.3502 112.011C55.5129 112.039 55.6085 111.972 55.7041 111.905C65.0219 109.934 67.5136 104.334 69.8726 99.9681C70.2451 99.2788 70.7132 98.5224 71.1527 97.9287C74.0384 93.907 78.2185 92.544 83.2806 92.8451C83.7501 93.5144 84.2482 94.021 84.7177 94.6903Z" fill="#F5F5F6" stroke="#CDCDD2" stroke-width="2" stroke-miterlimit="10" stroke-linecap="round" stroke-linejoin="round"/>
<path d="M60.9889 57.4063L29.6263 79.4075C28.957 79.877 27.9808 79.7058 27.5783 79.1321L25.4319 76.0723C24.9623 75.403 25.2007 74.5224 25.87 74.0529L57.3282 51.9846C57.9976 51.5151 58.9067 51.5907 59.3762 52.26L61.4556 55.2242C61.7339 56.0276 61.6583 56.9367 60.9889 57.4063Z" fill="white" stroke="#CDCDD2" stroke-width="2" stroke-miterlimit="10" stroke-linecap="round" stroke-linejoin="round"/>
<path d="M92.6489 102.538L61.2863 124.54C60.6169 125.009 59.7078 124.933 59.2383 124.264L57.1589 121.3C56.6894 120.631 56.9277 119.75 57.597 119.281L89.0553 97.2121C89.7246 96.7426 90.6337 96.8182 91.1032 97.4875L93.1826 100.452C93.4609 101.255 93.3182 102.069 92.6489 102.538Z" fill="white" stroke="#CDCDD2" stroke-width="2" stroke-miterlimit="10" stroke-linecap="round" stroke-linejoin="round"/>
<path d="M111.308 35.605L109.875 38.2696C109.466 39.031 109.09 39.5999 108.492 40.1899C106.636 42.2066 103.956 43.1491 101.309 42.9875C100.841 42.946 100.368 43.0424 100.03 43.281C99.6367 43.4903 99.2396 43.8376 99.0057 44.2727C98.5378 45.1428 98.6179 46.1673 99.1745 46.9573C101.062 49.4444 101.628 52.6933 100.518 55.6714C100.397 56.027 100.221 56.3532 100.017 56.7339L98.5837 59.3986C98.4083 59.7248 98.1785 60.0219 98.0323 60.2938L82.0444 51.6969C82.1362 51.3957 82.3409 51.0151 82.4871 50.7432L83.9199 48.0785C84.0661 47.8066 84.2667 47.564 84.4129 47.2921C84.4714 47.1833 84.6135 47.0494 84.7012 46.8862C86.5983 44.4011 89.5374 43.1073 92.5693 43.3355C93.5061 43.4186 94.4341 42.8661 94.902 41.996C95.1067 41.6153 95.2319 41.1218 95.1898 40.6785C95.219 40.6241 95.1646 40.5949 95.1646 40.5949C95.1226 40.1517 94.9132 39.7587 94.7039 39.3657C93.4275 37.6979 92.7698 35.6617 92.8062 33.5081C92.8226 32.9561 92.839 32.4041 92.9934 31.8562C92.9975 31.7182 93.0852 31.555 93.1437 31.4463C93.3274 30.844 93.5402 30.1873 93.8619 29.5891L95.2947 26.9245C95.324 26.8701 95.3824 26.7613 95.4409 26.6526L111.538 35.3079C111.395 35.4418 111.366 35.4962 111.308 35.605Z" fill="#F5F5F6" stroke="#D4D4D8" stroke-width="1.9781" stroke-miterlimit="10" stroke-linecap="round" stroke-linejoin="round"/>
<path d="M93.8343 53.7599C93.8343 53.7599 87.0039 51.2088 86.8198 50.8994C86.6315 50.7281 84.9077 49.2403 83.8032 48.2959L84.0956 47.7521C84.2418 47.4802 84.388 47.2083 84.6178 46.9112C84.7558 46.9153 84.9231 46.8651 85.0903 46.8148C87.3106 46.4664 91.2209 46.8865 93.0883 50.9752L93.8343 53.7599Z" fill="#F5F5F6" stroke="#D4D4D8" stroke-width="1.9781" stroke-miterlimit="10" stroke-linecap="round" stroke-linejoin="round"/>
<path d="M111.308 35.605L109.875 38.2696C109.466 39.031 109.09 39.5999 108.492 40.1899C106.636 42.2066 103.956 43.1491 101.309 42.9875C100.841 42.946 100.368 43.0424 100.03 43.281C99.6367 43.4903 99.2396 43.8376 99.0057 44.2727C98.5378 45.1428 98.6179 46.1673 99.1745 46.9573C101.062 49.4444 101.628 52.6933 100.518 55.6714C100.397 56.027 100.221 56.3532 100.017 56.7339L98.5837 59.3986C98.4083 59.7248 98.1785 60.0219 98.0323 60.2938L82.0444 51.6969C82.1362 51.3957 82.3409 51.0151 82.4871 50.7432L83.9199 48.0785C84.0661 47.8066 84.2667 47.564 84.4129 47.2921C84.4714 47.1833 84.6135 47.0494 84.7012 46.8862C86.5983 44.4011 89.5374 43.1073 92.5693 43.3355C93.5061 43.4186 94.4341 42.8661 94.902 41.996C95.1067 41.6153 95.2319 41.1218 95.1898 40.6785C95.219 40.6241 95.1646 40.5949 95.1646 40.5949C95.1226 40.1517 94.9132 39.7587 94.7039 39.3657C93.4275 37.6979 92.7698 35.6617 92.8062 33.5081C92.8226 32.9561 92.839 32.4041 92.9934 31.8562C92.9975 31.7182 93.0852 31.555 93.1437 31.4463C93.3274 30.844 93.5402 30.1873 93.8619 29.5891L95.2947 26.9245C95.324 26.8701 95.3824 26.7613 95.4409 26.6526L111.538 35.3079C111.395 35.4418 111.366 35.4962 111.308 35.605Z" fill="white" stroke="#CDCDD2" stroke-width="2" stroke-miterlimit="10"/>
<path d="M101.587 39.2111L94.8318 35.9992L92.8315 33.5916C92.8479 33.0396 92.8643 32.4876 93.0187 31.9397C93.0228 31.8017 93.1105 31.6386 93.169 31.5298C96.339 31.7622 98.5598 32.3254 101.301 35.8324C101.753 36.4259 102.151 36.9902 102.628 37.6674C106.7 43.783 101.587 39.2111 101.587 39.2111Z" fill="#F5F5F6" stroke="#CDCDD2" stroke-width="1.9781" stroke-miterlimit="10" stroke-linecap="round" stroke-linejoin="round"/>
<path d="M108.462 40.2441C106.607 42.2608 103.927 43.2033 101.28 43.0417C100.811 43.0002 100.339 43.0966 100 43.3352L99.946 43.306C99.0759 42.8381 97.9052 43.19 97.4373 44.0601L93.0804 52.1628L91.5034 51.3149L95.8895 43.1578C96.3574 42.2877 96.0598 41.1462 95.1354 40.6491C95.0933 40.2059 94.884 39.8129 94.6746 39.4199C93.3982 37.7521 92.7405 35.716 92.7769 33.5623C92.7933 33.0103 92.8097 32.4583 92.9641 31.9104C95.7848 35.5302 98.7623 35.7292 101.163 35.8282C101.907 35.8779 102.597 35.8984 103.258 35.9733C105.817 36.298 107.428 37.8653 108.462 40.2441Z" fill="#F5F5F6" stroke="#CDCDD2" stroke-width="2" stroke-miterlimit="10" stroke-linecap="round" stroke-linejoin="round"/>
<path d="M99.9622 56.7046L98.5294 59.3693C98.354 59.6955 98.1241 59.9926 97.9779 60.2645L83.7302 52.6033L82.6626 50.4168L83.9492 48.0241C84.0954 47.7522 84.2416 47.4803 84.4422 47.2376C84.5007 47.1289 84.6428 46.995 84.7305 46.8318C84.7849 46.8611 84.7556 46.9154 84.81 46.9447C84.8352 47.0283 84.8895 47.0575 84.9439 47.0868C88.0867 51.02 91.3234 50.8676 93.9454 50.9456C94.3594 50.9579 94.8278 50.9994 95.2126 51.0661C97.7972 51.4744 99.4332 53.1253 100.493 55.5878C100.288 55.9684 100.167 56.3239 99.9622 56.7046Z" fill="#F5F5F6" stroke="#CDCDD2" stroke-width="2" stroke-miterlimit="10" stroke-linecap="round" stroke-linejoin="round"/>
<path d="M111.939 36.6457L94.1026 27.0546C93.722 26.8499 93.5711 26.3482 93.7466 26.0219L94.6823 24.2817C94.887 23.9011 95.3595 23.8046 95.7402 24.0093L113.631 33.6296C114.012 33.8343 114.192 34.2817 113.987 34.6624L113.081 36.3481C112.767 36.6703 112.32 36.8504 111.939 36.6457Z" fill="white" stroke="#CDCDD2" stroke-width="2" stroke-miterlimit="10" stroke-linecap="round" stroke-linejoin="round"/>
<path d="M98.1383 62.3135L80.3014 52.7224C79.9208 52.5177 79.7407 52.0704 79.9454 51.6897L80.8518 50.0039C81.0565 49.6233 81.529 49.5268 81.9097 49.7315L99.8009 59.3518C100.181 59.5565 100.362 60.0039 100.157 60.3845L99.2505 62.0703C98.937 62.3925 98.5189 62.5182 98.1383 62.3135Z" fill="white" stroke="#CDCDD2" stroke-width="2" stroke-miterlimit="10" stroke-linecap="round" stroke-linejoin="round"/>
</svg>
