<svg width="138" height="124" viewBox="0 0 138 124" fill="none" xmlns="http://www.w3.org/2000/svg">
<path d="M131.911 65.0972C131.911 86.2946 120.148 105.163 103.609 114.597C103.609 114.597 103.493 114.713 103.376 114.713C101.28 115.994 98.6011 117.159 97.4364 117.741H97.3199C96.3882 118.091 90.7977 120.42 89.8659 120.42C89.7495 120.42 89.633 120.42 89.633 120.536C89.5165 120.536 89.4 120.536 89.2836 120.653C86.8377 121.352 83.3437 121.934 82.6448 122.051C82.6448 122.4 71.9297 123.448 62.8451 121.468C61.6804 121.468 54.2264 119.488 47.7041 116.227C29.3021 106.677 16.6069 87.3428 16.6069 65.0972C16.6069 33.3012 42.463 7.56152 74.2591 7.56152C106.172 7.56152 131.911 33.3012 131.911 65.0972Z" fill="#F4F4F5" stroke="#D4D4D8" stroke-width="2" stroke-miterlimit="10"/>
<path d="M91.7293 88.624V119.954C91.6129 119.954 90.0988 120.537 89.9823 120.537C89.8658 120.537 89.7494 120.537 89.7494 120.653C89.6329 120.653 89.5164 120.653 89.4 120.769C86.9541 121.468 83.46 122.051 82.7612 122.167V88.624H91.7293Z" fill="white" stroke="#D4D4D8" stroke-width="2" stroke-miterlimit="10"/>
<path d="M99.8819 88.624V116.693C99.2996 117.042 98.2514 117.392 97.4361 117.858H97.3196C95.8055 118.557 94.0585 119.255 91.0303 120.187V88.7405H99.8819V88.624Z" fill="white" stroke="#D4D4D8" stroke-width="2" stroke-miterlimit="10"/>
<path d="M136.337 53.4504V89.0899H108.501V89.2064H52.7124V25.1485H105.706C106.405 25.032 107.103 25.032 107.919 25.032C108.85 25.032 109.666 25.032 110.597 25.1485C111.762 25.2649 112.81 25.3814 113.859 25.6143C119.333 26.779 124.224 29.5743 127.951 33.3013C133.192 38.5424 136.337 45.647 136.337 53.4504Z" fill="white" stroke="#D4D4D8" stroke-width="2" stroke-miterlimit="10"/>
<path d="M126.67 62.4185C130.281 62.4185 133.309 59.6233 133.309 56.0127C133.309 52.4022 130.397 49.6069 126.67 49.6069C123.059 49.6069 120.031 52.4022 120.031 56.0127C120.031 59.6233 122.943 62.4185 126.67 62.4185Z" fill="#D4D4D8"/>
<path d="M127.02 62.4185C130.514 62.4185 133.425 59.6233 133.425 56.0127C133.425 52.4022 130.514 49.6069 127.02 49.6069C123.525 49.6069 120.614 52.4022 120.614 56.0127C120.614 59.6233 123.409 62.4185 127.02 62.4185Z" fill="white" stroke="#D4D4D8" stroke-width="2" stroke-miterlimit="10"/>
<path d="M127.02 58.4586C128.417 58.4586 129.465 57.4104 129.465 56.0127C129.465 54.6151 128.417 53.5669 127.02 53.5669C125.622 53.5669 124.574 54.6151 124.574 56.0127C124.574 57.4104 125.622 58.4586 127.02 58.4586Z" fill="#D4D4D8"/>
<path d="M80.4321 50.6551V89.2064H23.5952V50.6551C23.5952 38.5424 32.2139 28.2931 43.5114 25.7308C45.3749 25.2649 47.2384 25.1484 49.2184 25.1484H55.0418C67.8534 25.1484 78.3356 34.466 80.3156 46.6952C80.3156 47.8599 80.4321 49.2575 80.4321 50.6551Z" fill="#A1A1AA" stroke="#D4D4D8" stroke-width="2" stroke-miterlimit="10"/>
<path d="M67.1543 110.986C65.5238 113.432 63.5438 117.392 62.3791 120.653C62.2627 120.886 62.1462 121.235 62.1462 121.468C61.3309 121.352 60.5156 121.119 59.7003 120.886C59.0015 119.255 58.5356 117.508 58.5356 117.508C59.0015 116.926 59.3509 116.46 59.8168 115.994C62.0297 113.315 64.3591 111.452 67.1543 110.986Z" fill="#C9C9CE"/>
<path d="M62.8452 121.585C62.6123 121.585 62.3793 121.468 62.1464 121.468C61.3311 121.352 60.5158 121.119 59.7006 120.886C59.1182 120.769 58.6523 120.536 58.07 120.42C57.837 120.304 57.6041 120.304 57.3712 120.187C57.1382 120.071 56.9053 120.071 56.5559 119.954C53.5277 119.022 50.616 117.741 47.8207 116.344C44.909 111.452 43.2784 105.512 40.4832 97.2427C40.4832 97.1262 40.4832 97.1262 40.3667 97.0098C40.3667 97.0098 40.5996 97.0098 41.182 97.2427C41.5314 97.4756 42.1137 97.7086 42.8126 98.1745C44.2102 99.1062 46.4231 100.737 49.6842 103.416C53.7606 106.793 57.2547 111.801 59.7006 115.878C60.7488 117.741 61.6805 119.372 62.3793 120.653C62.6123 120.886 62.7287 121.235 62.8452 121.585Z" fill="#D4D4D8"/>
<path d="M58.0697 120.304C57.8368 120.187 57.6038 120.187 57.3709 120.071C57.138 119.954 56.905 119.954 56.5556 119.838C51.1981 109.123 45.1417 102.251 41.6476 98.2909C41.2982 97.8251 40.9488 97.4757 40.5994 97.1262C40.5994 97.0098 40.5994 97.0098 40.4829 96.8933C40.4829 96.8933 40.7158 96.8933 41.2982 97.1262C41.6476 97.3592 42.2299 97.5921 42.9288 98.058C46.5393 102.251 52.7121 109.355 58.0697 120.304Z" fill="#E4E4E7"/>
<path d="M112.461 95.2627C112.461 95.2627 112.344 95.4956 112.111 95.9615C110.714 98.5238 106.055 107.026 103.842 114.48C103.726 114.48 103.726 114.597 103.609 114.597C103.609 114.597 103.493 114.713 103.376 114.713C101.28 115.994 98.6009 117.159 97.4362 117.741H97.3197C93.8257 119.372 90.0987 120.42 89.8657 120.42C91.6128 114.713 94.1751 109.588 97.7856 105.279C98.4844 104.464 99.1832 103.648 99.8821 102.95C99.9985 102.833 100.115 102.717 100.231 102.6C103.26 99.572 106.404 97.5921 109.433 96.3109C109.782 96.1944 110.131 95.9615 110.481 95.845C110.83 95.6121 111.412 95.4956 111.995 95.2627C112.228 95.3792 112.344 95.2627 112.461 95.2627Z" fill="#D4D4D8"/>
<path d="M112.344 95.03C112.344 95.03 112.228 95.1465 112.111 95.4959C112.111 95.6124 111.995 95.6124 111.995 95.7289C105.938 101.086 101.163 110.055 98.135 117.509C97.902 117.625 97.6691 117.741 97.4361 117.858H97.3197C97.0867 117.974 96.7373 118.091 96.5044 118.207C96.6209 117.974 96.7373 117.858 96.7373 117.858C98.2514 114.131 102.328 103.532 109.432 96.4277C109.665 96.1947 109.898 95.9618 110.131 95.7289C110.947 95.4959 111.645 95.263 112.344 95.03Z" fill="#E4E4E7"/>
<path d="M80.7812 85.1301V89.2065H3.09644C1.93175 89.2065 1 88.2748 1 87.2266C1 86.0619 1.93175 85.1301 3.09644 85.1301H80.7812Z" fill="#F4F4F5" stroke="#D4D4D8" stroke-width="2" stroke-miterlimit="10"/>
<path d="M96.7373 54.3823H127.369C128.3 54.3823 128.999 55.0811 128.999 56.0129C128.999 56.9446 128.3 57.6435 127.369 57.6435H96.7373V54.3823Z" fill="white" stroke="#D4D4D8" stroke-width="2" stroke-miterlimit="10"/>
<path d="M95.6894 38.7756C96.0388 38.3097 96.854 38.5426 96.854 39.2415V54.266V57.76H84.2754V39.2415C84.2754 38.6591 84.9742 38.3097 85.4401 38.7756L89.5165 43.6673C90.0988 44.3661 91.1471 44.3661 91.7294 43.6673L95.6894 38.7756Z" fill="white" stroke="#D4D4D8" stroke-width="2" stroke-miterlimit="10"/>
<path d="M13.9278 12.5701C12.4137 19.6747 11.5984 26.8958 11.4819 34.1168C11.3655 40.7556 11.3655 48.0931 13.3455 54.4989C15.7913 62.6517 23.3618 70.8046 32.6793 68.3587C37.8039 66.9611 41.9968 62.5353 43.1615 57.0612C43.8603 53.5671 42.8121 49.4907 40.0168 47.3943C36.9887 45.4143 32.5628 45.8802 29.884 48.326C26.9723 50.7719 25.8076 54.4989 25.9241 58.1094C26.0406 61.72 27.4382 65.214 29.0688 68.3587C33.9605 77.3268 59.3507 72.5516 78.2187 70.3387" stroke="#D4D4D8" stroke-width="2" stroke-miterlimit="10" stroke-dasharray="4 4"/>
<path d="M4.84328 6.74643C5.42562 9.07581 7.98794 9.89109 10.5503 8.49346C13.3455 7.09583 15.209 6.16408 14.6267 3.95117C14.0443 1.85473 11.482 1.62179 8.57029 1.38885C4.95975 1.03945 4.26093 4.41705 4.84328 6.74643Z" fill="#F4F4F5" stroke="#D4D4D8" stroke-width="2" stroke-miterlimit="10"/>
<path d="M25.2255 8.84299C24.2937 10.823 21.2655 11.9877 19.1691 10.0077C16.8397 7.91124 15.0927 6.51361 16.0244 4.3007C16.9562 2.32073 18.8197 2.90307 22.3138 3.48542C25.2255 4.18423 26.3902 6.74655 25.2255 8.84299Z" fill="#F4F4F5" stroke="#D4D4D8" stroke-width="2" stroke-miterlimit="10"/>
<path d="M15.9076 1.03949C14.3935 0.806549 12.9959 1.62183 12.53 3.01946C12.4135 3.36887 12.1806 3.95121 12.1806 4.53356C11.8312 7.44528 12.763 10.0076 14.51 10.2405C16.257 10.4735 18.0041 8.26056 18.4699 5.58178C18.4699 4.76649 18.4699 4.18415 18.4699 3.6018C18.3535 2.20418 17.3052 1.27242 15.9076 1.03949C15.7911 1.03949 15.9076 1.03949 15.9076 1.03949Z" fill="#F4F4F5"/>
<path d="M15.9076 1.03949C14.3935 0.806549 12.9959 1.62183 12.53 3.01946C12.4135 3.36887 12.1806 3.95121 12.1806 4.53356C11.8312 7.44528 12.763 10.0076 14.51 10.2405C16.257 10.4735 18.0041 8.26056 18.4699 5.58178C18.4699 4.76649 18.4699 4.18415 18.4699 3.6018C18.3535 2.20418 17.3052 1.27242 15.9076 1.03949ZM15.9076 1.03949C15.9076 1.03949 15.7911 1.03949 15.9076 1.03949Z" stroke="#D4D4D8" stroke-width="2" stroke-miterlimit="10"/>
<path d="M84.9741 89.2065H83.5765C84.1588 90.6042 84.5082 92.8171 84.7412 95.4959C83.1106 95.8453 80.0824 95.3794 78.2189 93.9818C77.6366 91.8853 77.1707 90.2548 76.7048 89.2065H75.1907C75.5401 89.7889 76.1225 91.6524 76.8213 94.3312C74.259 96.777 72.6284 95.8453 67.6202 93.3994C67.1544 93.1665 66.572 92.8171 65.8732 92.5841C64.7085 91.1865 63.7767 90.0218 62.845 89.2065H60.6321C61.5638 89.7889 62.845 90.9536 64.2426 92.5841C56.9051 98.1747 50.2664 95.7288 46.6558 94.4476C46.0735 94.2147 45.6076 94.0982 45.1417 93.9818C41.1818 91.8853 37.5712 90.2548 34.543 89.2065H29.8843V89.323C35.5913 90.2548 48.9852 97.1264 60.9815 104.93V105.046H61.098C70.1825 110.986 78.4518 117.509 81.5965 122.284L82.7612 122.167V122.284V122.167C82.9941 122.167 83.3435 122.051 83.5765 122.051C83.8094 122.051 84.0424 121.934 84.1588 121.934C83.9259 120.886 83.1106 116.693 82.0624 111.569C82.6447 111.918 83.3435 112.267 84.2753 112.267C84.5082 112.267 84.7412 112.267 84.8576 112.267C84.7412 115.994 84.6247 119.488 84.3918 122.051C84.8576 121.934 85.3235 121.934 85.7894 121.818C86.1388 115.994 87.187 96.3112 84.9741 89.2065ZM84.7412 96.8935C84.8576 98.6405 84.9741 100.504 84.9741 102.368C83.46 103.066 82.5283 102.251 81.1306 100.737C80.6648 100.155 80.0824 99.5723 79.5001 99.2229C79.2671 98.0582 78.9177 97.01 78.6848 95.9617C80.5483 96.777 82.9941 97.1264 84.7412 96.8935ZM78.4518 101.203C78.9177 103.416 79.5001 105.862 79.9659 108.307C79.6165 108.307 79.3836 108.54 79.1507 108.657C78.6848 109.006 77.986 109.356 76.3554 108.89C75.7731 107.842 75.1907 106.793 74.6084 105.862C73.9096 104.58 73.0943 103.416 72.5119 102.368C75.1907 102.484 76.9377 102.135 78.4518 101.203ZM77.1707 95.8453C77.5201 97.01 77.753 98.2911 78.1024 99.6888C76.8213 100.737 75.1907 101.203 71.5802 100.737C70.1825 98.6405 68.9014 96.6606 67.7367 95.03C71.9296 97.1264 74.259 98.1747 77.1707 95.8453ZM51.0816 97.2429C52.1299 97.4758 53.1781 97.5923 54.3428 97.5923C57.6039 97.5923 61.2144 96.6606 65.0579 93.7488C66.6885 95.8453 68.4355 98.4076 70.1825 101.203C68.0861 103.183 64.592 103.416 61.5638 103.649C58.0698 101.319 54.4592 99.2229 51.0816 97.2429ZM63.4273 104.813C66.1061 104.58 69.0179 104.115 70.8814 102.368C72.279 104.58 73.6766 107.026 75.0742 109.356C74.4919 110.52 73.3272 110.753 70.7649 110.171C68.552 108.307 65.9897 106.56 63.4273 104.813ZM73.0943 111.802C74.1425 111.802 75.1907 111.569 76.006 110.637C77.5201 113.316 79.0342 115.994 80.1989 118.091C78.2189 116.111 75.7731 114.014 73.0943 111.802ZM82.1788 119.256C80.8977 116.81 79.1507 113.549 77.2872 110.404C78.5683 110.52 79.2671 110.054 79.8495 109.822C79.9659 109.822 79.9659 109.705 80.0824 109.705C80.0824 109.705 80.1989 109.822 80.3153 109.938C81.0142 113.083 81.5965 116.344 82.1788 119.256ZM84.8576 110.637C83.5765 110.986 82.5283 110.287 81.5965 109.356C81.1306 106.793 80.5483 104.231 79.9659 101.669L80.0824 101.785C81.2471 103.066 82.7612 104.58 84.9741 103.998C84.9741 106.095 84.9741 108.424 84.8576 110.637Z" fill="#D4D4D8"/>
<path d="M123.316 108.506C125.58 108.506 127.416 106.67 127.416 104.406C127.416 102.141 125.58 100.306 123.316 100.306C121.051 100.306 119.216 102.141 119.216 104.406C119.216 106.67 121.051 108.506 123.316 108.506Z" fill="#F4F4F5"/>
<path d="M115.735 21.3241C117.281 21.3241 118.535 20.0705 118.535 18.5241C118.535 16.9777 117.281 15.7241 115.735 15.7241C114.189 15.7241 112.935 16.9777 112.935 18.5241C112.935 20.0705 114.189 21.3241 115.735 21.3241Z" fill="#F4F4F5"/>
<path d="M10.1585 107.203C13.0304 107.203 15.3585 104.875 15.3585 102.003C15.3585 99.1316 13.0304 96.8035 10.1585 96.8035C7.28662 96.8035 4.9585 99.1316 4.9585 102.003C4.9585 104.875 7.28662 107.203 10.1585 107.203Z" fill="#F4F4F5"/>
</svg>
